<?xml version="1.0" encoding="utf-8"?><!-- Uploaded to: SVG Repo, www.svgrepo.com, Generator: SVG Repo Mixer Tools -->
<svg width="800px" height="800px" viewBox="0 0 24 24" fill="none" xmlns="http://www.w3.org/2000/svg">
<path fill-rule="evenodd" clip-rule="evenodd" d="M14.1893 2.60561C12.7604 2.18225 11.2395 2.18225 9.81066 2.60561C7.01297 3.43455 5.09373 6.00493 5.09373 8.92285V11.6948C5.09373 12.1768 4.99829 12.6539 4.81292 13.0988L4.63261 13.5316C4.39386 14.1046 4.29705 14.7684 4.45055 15.4023C4.61088 16.0644 5.04065 16.6565 5.75252 16.9824C6.30871 17.237 7.04018 17.4814 8 17.6668V17.9999C8 20.209 9.79086 21.9999 12 21.9999C14.2091 21.9999 16 20.209 16 17.9999V17.6668C17.2845 17.4187 18.1607 17.0648 18.7548 16.7217C19.8833 16.0698 19.8926 14.7922 19.5506 13.9713L19.4692 13.776C19.0976 12.8841 18.9062 11.9274 18.9062 10.9612V8.92285C18.9062 6.00493 16.987 3.43455 14.1893 2.60561ZM11.9693 17.9999C11.9795 17.9999 11.9897 17.9999 12 17.9999C12.0102 17.9999 12.0204 17.9999 12.0307 17.9999H14C14 19.1044 13.1046 19.9999 12 19.9999C10.8954 19.9999 10 19.1044 10 17.9999H11.9693Z" fill="#152C70"/>
</svg>